<svg xmlns="http://www.w3.org/2000/svg" width="1024" height="1024" viewBox="0 0 1024 1024">
  <defs>
    <linearGradient id="bg" x1="0%" y1="0%" x2="100%" y2="100%">
      <stop offset="0%" style="stop-color:#1a1a1a"/>
      <stop offset="100%" style="stop-color:#0a0a0a"/>
    </linearGradient>
    <linearGradient id="accent" x1="0%" y1="0%" x2="100%" y2="100%">
      <stop offset="0%" style="stop-color:#ff3b3b"/>
      <stop offset="100%" style="stop-color:#e30613"/>
    </linearGradient>
    <filter id="shadow" x="-20%" y="-20%" width="140%" height="140%">
      <feDropShadow dx="0" dy="10.24" stdDeviation="15.36" flood-color="#000" flood-opacity="0.25"/>
    </filter>
  </defs>

  <!-- Background -->
  <rect x="169.984" y="169.984" width="684.0319999999999" height="684.0319999999999" rx="150.48703999999998" ry="150.48703999999998" fill="url(#bg)" filter="url(#shadow)"/>

  <!-- Border highlight -->
  <rect x="169.984" y="169.984" width="684.0319999999999" height="684.0319999999999" rx="150.48703999999998" ry="150.48703999999998" fill="none" stroke="rgba(255,255,255,0.1)" stroke-width="2.048"/>

  <!-- S letter as path -->
  <path d="M 579.035136 344.4121600000001 C 440.17664 344.4121600000001 392.29440000000005 392.29440000000005 392.29440000000005 452.1472 C 392.29440000000005 512 452.1472 535.94112 512 547.9116799999999 C 571.8528 559.88224 631.7056 583.82336 631.7056 643.67616 C 631.7056 703.52896 583.82336 751.4111999999999 444.96486400000003 751.4111999999999 L 444.96486400000003 691.5583999999999 C 547.9116799999999 691.5583999999999 571.8528 667.6172799999999 571.8528 636.4938239999999 C 571.8528 602.9762559999999 523.97056 583.82336 476.08832 564.670464 C 416.23552 540.729344 332.44160000000005 500.02944 332.44160000000005 428.20608000000004 C 332.44160000000005 356.38272000000006 404.26496000000003 284.5593600000001 579.035136 284.5593600000001 Z" fill="url(#accent)"/>
</svg>